<svg width="54" height="54" viewBox="0 0 54 54" fill="none" xmlns="http://www.w3.org/2000/svg">
<g filter="url(#filter0_d_13_135)">
<rect x="4.9056" y="0.905605" width="43.469" height="43.469" rx="21.7345" stroke="#6B4E3C" stroke-width="1.81121"/>
<path d="M21.587 21.7288C21.587 21.7288 20.0942 21.6216 19.7116 21.239C19.329 20.8564 19.329 20.2361 19.7116 19.8535C20.0942 19.4709 20.7145 19.4709 21.0971 19.8535C21.4797 20.2361 21.587 21.7288 21.587 21.7288Z" fill="#6B4E3C"/>
<mask id="path-3-outside-1_13_135" maskUnits="userSpaceOnUse" x="13.1339" y="6.96164" width="27" height="16" fill="black">
<rect fill="white" x="13.1339" y="6.96164" width="27" height="16"/>
<path d="M18.3821 19.3657L19.3803 14.8356C19.3803 14.8356 15.6179 14.5284 16.1938 11.1884C16.1938 11.1884 21.0695 12.8009 22.4515 11.4188C22.4515 11.4188 25.507 8.1543 30.385 11.3977C32.0125 12.48 36.6427 11.1674 36.6427 11.1674C37.2186 14.5074 33.4562 14.8145 33.4562 14.8145L34.4544 19.3447"/>
</mask>
<path d="M15.7289 18.7811C15.4061 20.2464 16.3322 21.696 17.7975 22.0189C19.2628 22.3417 20.7124 21.4156 21.0353 19.9503L15.7289 18.7811ZM19.3803 14.8356L22.0335 15.4202C22.2023 14.654 22.0317 13.8523 21.5655 13.2213C21.0994 12.5903 20.3832 12.1916 19.6013 12.1278L19.3803 14.8356ZM16.1938 11.1884L17.0468 8.60901C16.2961 8.36072 15.4743 8.45186 14.7962 8.85866C14.1181 9.26546 13.6509 9.94753 13.5165 10.7268L16.1938 11.1884ZM22.4515 11.4188L24.3727 13.3398C24.3938 13.3186 24.4146 13.2971 24.4351 13.2753L22.4515 11.4188ZM30.385 11.3977L31.8893 9.13541L31.8892 9.13539L30.385 11.3977ZM36.6427 11.1674L39.32 10.7058C39.1891 9.94667 38.7421 9.27879 38.0902 8.86835C37.4384 8.45791 36.6429 8.3435 35.9017 8.5536L36.6427 11.1674ZM33.4562 14.8145L33.2352 12.1067C32.4533 12.1706 31.7371 12.5693 31.271 13.2003C30.8049 13.8313 30.6342 14.633 30.8031 15.3991L33.4562 14.8145ZM31.8012 19.9293C32.1241 21.3946 33.5737 22.3207 35.039 21.9979C36.5043 21.675 37.4304 20.2254 37.1076 18.7601L31.8012 19.9293ZM21.0353 19.9503L22.0335 15.4202L16.7271 14.251L15.7289 18.7811L21.0353 19.9503ZM19.3803 14.8356C19.6013 12.1278 19.6025 12.1279 19.6037 12.1279C19.604 12.128 19.6052 12.1281 19.6059 12.1281C19.6074 12.1283 19.6088 12.1284 19.6102 12.1285C19.6129 12.1287 19.6155 12.129 19.6178 12.1292C19.6225 12.1296 19.6265 12.1299 19.6296 12.1302C19.636 12.1309 19.6394 12.1312 19.64 12.1313C19.6412 12.1314 19.632 12.1304 19.6139 12.1278C19.5769 12.1223 19.5096 12.111 19.4244 12.091C19.2379 12.047 19.0519 11.9813 18.9148 11.9032C18.7823 11.8279 18.7982 11.8011 18.8341 11.867C18.8905 11.9703 18.8181 11.9577 18.8711 11.65L13.5165 10.7268C13.2816 12.0891 13.4636 13.3675 14.0633 14.4677C14.6428 15.5306 15.4913 16.2069 16.2274 16.6258C16.9589 17.042 17.6775 17.2618 18.1784 17.3798C18.437 17.4407 18.6591 17.4795 18.8255 17.5039C18.9093 17.5162 18.9803 17.525 19.0363 17.5313C19.0644 17.5344 19.0888 17.5369 19.1094 17.5389C19.1196 17.5399 19.129 17.5408 19.1373 17.5415C19.1414 17.5419 19.1453 17.5422 19.149 17.5425C19.1508 17.5427 19.1526 17.5428 19.1543 17.543C19.1552 17.543 19.1564 17.5431 19.1568 17.5432C19.158 17.5433 19.1592 17.5434 19.3803 14.8356ZM16.1938 11.1884C15.3408 13.7678 15.3412 13.768 15.3417 13.7681C15.3419 13.7682 15.3423 13.7684 15.3427 13.7685C15.3434 13.7687 15.3442 13.769 15.3451 13.7693C15.3469 13.7699 15.3489 13.7705 15.3513 13.7713C15.356 13.7728 15.3619 13.7748 15.3689 13.7771C15.383 13.7816 15.4018 13.7877 15.425 13.7951C15.4713 13.8098 15.5354 13.8299 15.6151 13.8542C15.7742 13.9026 15.9973 13.9681 16.2674 14.0412C16.8016 14.1858 17.5475 14.3676 18.3608 14.5022C19.1524 14.6333 20.1229 14.7395 21.0705 14.6767C21.9164 14.6206 23.3144 14.3981 24.3727 13.3398L20.5304 9.49771C20.8977 9.13047 21.1679 9.22469 20.711 9.25499C20.3556 9.27855 19.8481 9.24085 19.248 9.14154C18.6696 9.0458 18.1102 8.91087 17.6871 8.79633C17.4784 8.73987 17.3098 8.69024 17.1969 8.65588C17.1406 8.63874 17.0986 8.62553 17.0728 8.61733C17.0599 8.61324 17.0512 8.6104 17.0468 8.60897C17.0445 8.60825 17.0434 8.60788 17.0434 8.60789C17.0434 8.60789 17.0437 8.60798 17.0443 8.60817C17.0446 8.60826 17.0449 8.60838 17.0453 8.60852C17.0456 8.60859 17.0459 8.60871 17.046 8.60875C17.0464 8.60888 17.0468 8.60901 16.1938 11.1884ZM22.4515 11.4188C24.4351 13.2753 24.4339 13.2765 24.4328 13.2778C24.4324 13.2781 24.4312 13.2794 24.4305 13.2802C24.429 13.2817 24.4276 13.2833 24.4262 13.2847C24.4234 13.2877 24.4207 13.2905 24.4182 13.2931C24.4132 13.2984 24.4088 13.3029 24.405 13.3068C24.3974 13.3146 24.3923 13.3197 24.3894 13.3225C24.3838 13.328 24.3874 13.3242 24.3997 13.3133C24.4248 13.2909 24.4823 13.242 24.5693 13.1807C24.747 13.0557 25.0189 12.8991 25.3673 12.7949C25.9482 12.6212 27.0974 12.4744 28.8807 13.6601L31.8892 9.13539C28.7945 7.07767 25.977 6.94132 23.8108 7.58899C22.7856 7.89551 21.9887 8.35233 21.441 8.73798C21.1654 8.93207 20.9461 9.11286 20.785 9.25636C20.7043 9.32833 20.6374 9.39159 20.5847 9.44331C20.5583 9.46919 20.5353 9.49227 20.5159 9.51218C20.5062 9.52214 20.4973 9.53131 20.4894 9.53967C20.4854 9.54385 20.4816 9.54782 20.478 9.55158C20.4763 9.55346 20.4745 9.55529 20.4729 9.55706C20.472 9.55795 20.4708 9.55925 20.4704 9.55969C20.4692 9.56097 20.468 9.56223 22.4515 11.4188ZM28.8807 13.6601C29.914 14.3471 31.1168 14.4968 31.9301 14.5325C32.8253 14.5719 33.7393 14.4869 34.5054 14.3784C35.2856 14.2678 35.9955 14.1205 36.5053 14.0027C36.7624 13.9433 36.9741 13.8902 37.1248 13.8509C37.2003 13.8313 37.2609 13.815 37.3046 13.8031C37.3264 13.7972 37.3441 13.7923 37.3574 13.7886C37.364 13.7868 37.3695 13.7852 37.3739 13.784C37.3761 13.7834 37.378 13.7828 37.3797 13.7824C37.3805 13.7821 37.3812 13.7819 37.3819 13.7817C37.3822 13.7816 37.3827 13.7815 37.3828 13.7815C37.3833 13.7814 37.3837 13.7812 36.6427 11.1674C35.9017 8.5536 35.9021 8.55349 35.9025 8.55339C35.9026 8.55336 35.9029 8.55326 35.9031 8.55321C35.9035 8.5531 35.9038 8.55301 35.9041 8.55294C35.9046 8.55279 35.9048 8.55273 35.9048 8.55274C35.9047 8.55276 35.9036 8.55308 35.9014 8.55369C35.897 8.5549 35.8885 8.55726 35.876 8.56065C35.8511 8.56744 35.8106 8.57834 35.7563 8.59247C35.6475 8.62078 35.4847 8.66173 35.2824 8.70848C34.8731 8.803 34.3237 8.91618 33.743 8.99847C33.1481 9.08278 32.5994 9.12305 32.1687 9.10412C31.656 9.0816 31.6698 8.98945 31.8893 9.13541L28.8807 13.6601ZM33.9654 11.629C34.0184 11.9367 33.9461 11.9493 34.0024 11.846C34.0383 11.7801 34.0542 11.8068 33.9217 11.8822C33.7846 11.9602 33.5986 12.026 33.4121 12.07C33.3269 12.09 33.2596 12.1013 33.2226 12.1068C33.2045 12.1094 33.1953 12.1104 33.1965 12.1103C33.1971 12.1102 33.2005 12.1098 33.2069 12.1092C33.21 12.1089 33.214 12.1086 33.2187 12.1081C33.221 12.1079 33.2236 12.1077 33.2263 12.1075C33.2277 12.1074 33.2291 12.1072 33.2306 12.1071C33.2313 12.1071 33.2325 12.107 33.2329 12.1069C33.234 12.1068 33.2352 12.1067 33.4562 14.8145C33.6773 17.5224 33.6785 17.5223 33.6797 17.5222C33.6801 17.5221 33.6813 17.522 33.6822 17.5219C33.6839 17.5218 33.6857 17.5217 33.6875 17.5215C33.6912 17.5212 33.6951 17.5209 33.6992 17.5205C33.7075 17.5197 33.7169 17.5189 33.7271 17.5179C33.7477 17.5159 33.7721 17.5134 33.8002 17.5103C33.8562 17.504 33.9273 17.4952 34.011 17.4829C34.1774 17.4585 34.3996 17.4197 34.6581 17.3588C35.159 17.2408 35.8776 17.021 36.6091 16.6047C37.3453 16.1858 38.1937 15.5096 38.7732 14.4467C39.3729 13.3464 39.5549 12.0681 39.32 10.7058L33.9654 11.629ZM30.8031 15.3991L31.8012 19.9293L37.1076 18.7601L36.1094 14.2299L30.8031 15.3991Z" fill="#6B4E3C" mask="url(#path-3-outside-1_13_135)"/>
<path d="M22.7238 29.0474H30.4275C30.5607 29.0474 30.6883 29.1032 30.7744 29.2048C31.1891 29.6943 32.3146 31.3343 31.8003 34.2486C31.7103 34.7583 31.2298 35.1019 30.7208 35.008C29.0181 34.6942 25.1737 34.1316 22.5113 34.8482C21.9696 34.994 21.4304 34.6258 21.3635 34.0689C21.2155 32.8386 21.2088 30.822 22.3482 29.235C22.434 29.1155 22.5768 29.0474 22.7238 29.0474Z" fill="#6B4E3C"/>
<path d="M23.402 31.1425C23.402 31.1425 23.0658 32.5411 24.9469 32.5758" stroke="white" stroke-width="0.905605" stroke-miterlimit="10" stroke-linecap="round" stroke-linejoin="round"/>
<path d="M23.0399 36.6236C23.0399 36.6236 26.1495 40.5011 29.7967 36.7772" stroke="#6B4E3C" stroke-width="2.71681" stroke-miterlimit="10" stroke-linecap="round" stroke-linejoin="round"/>
<path d="M17.3527 16.387C15.8517 15.428 13.738 14.1399 11.2613 14.7496C11.2613 14.7496 10.5318 21.6216 18.7859 22.3511L19.3802 22.7826C19.3802 22.7826 18.2582 27.151 19.9983 30.6701" stroke="#6B4E3C" stroke-width="2.71681" stroke-miterlimit="10" stroke-linecap="round" stroke-linejoin="round"/>
<path d="M31.2495 21.7065C31.2495 21.7065 32.7423 21.5992 33.1249 21.2167C33.5075 20.8341 33.5075 20.2137 33.1249 19.8312C32.7423 19.4486 32.1219 19.4486 31.7394 19.8312C31.3568 20.2137 31.2495 21.7065 31.2495 21.7065Z" fill="#6B4E3C"/>
<path d="M29.9242 31.1215C29.9242 31.1215 30.2605 32.52 28.3793 32.5548" stroke="white" stroke-width="0.905605" stroke-miterlimit="10" stroke-linecap="round" stroke-linejoin="round"/>
<path d="M35.6029 16.291C37.0957 15.3662 39.1633 14.1348 41.5752 14.7286C41.5752 14.7286 42.3046 21.6006 34.0506 22.33L33.4562 22.7616C33.4562 22.7616 34.6996 26.6692 32.9595 30.1884" stroke="#6B4E3C" stroke-width="2.71681" stroke-miterlimit="10" stroke-linecap="round" stroke-linejoin="round"/>
</g>
<defs>
<filter id="filter0_d_13_135" x="0" y="0" width="53.2802" height="53.2802" filterUnits="userSpaceOnUse" color-interpolation-filters="sRGB">
<feFlood flood-opacity="0" result="BackgroundImageFix"/>
<feColorMatrix in="SourceAlpha" type="matrix" values="0 0 0 0 0 0 0 0 0 0 0 0 0 0 0 0 0 0 127 0" result="hardAlpha"/>
<feOffset dy="4"/>
<feGaussianBlur stdDeviation="2"/>
<feComposite in2="hardAlpha" operator="out"/>
<feColorMatrix type="matrix" values="0 0 0 0 0 0 0 0 0 0 0 0 0 0 0 0 0 0 0.25 0"/>
<feBlend mode="normal" in2="BackgroundImageFix" result="effect1_dropShadow_13_135"/>
<feBlend mode="normal" in="SourceGraphic" in2="effect1_dropShadow_13_135" result="shape"/>
</filter>
</defs>
</svg>
