<svg xmlns="http://www.w3.org/2000/svg" xmlns:xlink="http://www.w3.org/1999/xlink" width="1366" zoomAndPan="magnify" viewBox="0 0 1024.5 576" height="768" preserveAspectRatio="xMidYMid meet" version="1.0"><defs><g/></defs><g fill="#6b4e3c" fill-opacity="1"><g transform="translate(57.616626, 316.689494)"><g><path d="M 131.824219 -40.628906 C 128.558594 -35.734375 122.925781 -33.066406 117.585938 -33.066406 C 110.46875 -33.066406 106.167969 -38.703125 106.167969 -45.671875 C 106.167969 -49.378906 107.503906 -52.195312 110.46875 -53.382812 C 128.707031 -60.796875 141.460938 -80.960938 141.460938 -96.976562 C 141.460938 -107.355469 136.417969 -111.804688 128.855469 -111.804688 C 114.621094 -111.804688 106.316406 -95.789062 96.382812 -67.023438 C 94.457031 -61.832031 94.011719 -59.460938 90.007812 -59.164062 C 87.191406 -58.867188 84.222656 -58.867188 82.59375 -58.867188 C 80.070312 -58.867188 77.402344 -59.757812 79.628906 -65.539062 C 79.777344 -65.6875 79.777344 -65.6875 79.777344 -65.835938 C 82.445312 -72.507812 84.964844 -79.480469 87.042969 -86.003906 C 92.675781 -100.832031 87.191406 -110.320312 67.320312 -110.320312 C 35.292969 -110.320312 12.457031 -88.96875 12.457031 -63.613281 C 12.457031 -52.195312 18.832031 -41.816406 30.992188 -41.816406 C 45.375 -41.816406 53.085938 -54.566406 50.414062 -61.09375 C 47.152344 -61.09375 44.78125 -64.355469 44.78125 -68.507812 C 44.78125 -81.257812 57.089844 -90.453125 71.027344 -86.597656 C 66.429688 -75.179688 61.980469 -64.800781 58.421875 -55.457031 C 51.601562 -37.515625 39.292969 -30.101562 29.0625 -30.101562 C 20.90625 -30.101562 14.53125 -34.550781 14.53125 -41.074219 C 14.53125 -42.113281 13.492188 -42.851562 12.308594 -42.851562 C 0.445312 -42.851562 -7.414062 -30.84375 -7.414062 -18.683594 C -7.414062 -6.375 1.039062 6.226562 18.238281 6.226562 C 39.441406 6.226562 54.566406 -8.75 65.539062 -32.175781 C 66.578125 -34.402344 68.0625 -37.8125 69.839844 -41.964844 C 70.136719 -42.707031 70.582031 -43.59375 71.027344 -44.484375 C 73.101562 -48.488281 75.179688 -48.339844 77.402344 -48.339844 C 85.113281 -48.339844 90.007812 -49.675781 87.339844 -41.074219 L 87.191406 -40.480469 C 84.222656 -31.585938 83.628906 -24.316406 83.628906 -17.792969 C 83.628906 -6.226562 90.453125 0 100.980469 0 C 122.925781 0 133.75 -28.617188 138.496094 -36.921875 C 140.125 -39.738281 134.195312 -44.1875 131.824219 -40.628906 Z M 112.25 -73.695312 C 114.027344 -79.035156 116.105469 -84.074219 120.257812 -84.074219 C 122.332031 -84.074219 123.371094 -82.59375 123.371094 -80.367188 C 123.371094 -74.882812 116.253906 -65.09375 111.804688 -65.09375 C 110.46875 -65.09375 109.875 -66.132812 112.25 -73.695312 Z M 112.25 -73.695312 "/></g></g></g><g fill="#6b4e3c" fill-opacity="1"><g transform="translate(186.026916, 316.689494)"><g><path d="M 27.875 0 C 45.078125 0 60.796875 -12.753906 73.84375 -36.921875 C 75.476562 -39.738281 69.542969 -44.1875 67.171875 -40.628906 C 60.5 -30.398438 48.488281 -25.207031 38.40625 -25.207031 C 29.953125 -25.207031 22.984375 -27.875 22.984375 -33.066406 C 22.984375 -34.996094 24.464844 -35.4375 25.503906 -34.847656 C 28.914062 -32.917969 32.917969 -32.472656 37.070312 -32.472656 C 51.601562 -32.472656 60.945312 -44.632812 60.945312 -55.457031 C 60.945312 -65.242188 54.863281 -74.140625 41.074219 -74.140625 C -1.484375 -74.140625 -13.789062 0 27.875 0 Z M 33.214844 -43.59375 C 28.46875 -43.59375 26.246094 -46.414062 26.246094 -49.675781 C 26.246094 -53.679688 29.804688 -57.976562 35.585938 -57.976562 C 40.183594 -57.976562 42.410156 -55.160156 42.410156 -51.898438 C 42.410156 -48.191406 39 -43.59375 33.214844 -43.59375 Z M 33.214844 -43.59375 "/></g></g></g><g fill="#6b4e3c" fill-opacity="1"><g transform="translate(249.787222, 316.689494)"><g><path d="M 12.605469 0 C 32.621094 0 42.707031 -28.765625 47.449219 -36.921875 C 49.082031 -39.738281 43.148438 -44.1875 40.777344 -40.628906 C 37.664062 -35.882812 33.957031 -33.066406 28.765625 -33.066406 C 19.871094 -33.066406 21.054688 -41.519531 23.578125 -50.121094 C 26.988281 -62.574219 32.769531 -76.214844 40.925781 -92.675781 C 45.523438 -102.019531 43.445312 -106.613281 37.367188 -106.613281 C 25.355469 -106.613281 18.535156 -83.925781 3.558594 -40.628906 C 0.59375 -32.175781 -1.484375 -22.835938 -1.484375 -15.273438 C -1.484375 -6.523438 2.074219 0 12.605469 0 Z M 12.605469 0 "/></g></g></g><g fill="#6b4e3c" fill-opacity="1"><g transform="translate(287.153726, 316.689494)"><g><path d="M 75.773438 -40.628906 C 72.214844 -35.4375 68.210938 -33.363281 63.910156 -33.363281 C 65.6875 -39.144531 66.726562 -45.226562 66.726562 -51.601562 C 66.726562 -65.539062 59.015625 -74.140625 47.300781 -74.140625 C 42.707031 -74.140625 37.960938 -73.25 32.769531 -68.210938 C 30.398438 -65.835938 27.582031 -66.875 28.023438 -69.097656 C 28.46875 -71.769531 27.285156 -74.140625 22.09375 -74.140625 C 14.53125 -74.140625 13.046875 -68.949219 3.410156 -40.628906 C 1.335938 -34.699219 -0.742188 -29.0625 -2.667969 -23.875 C -10.230469 -4.449219 -17.050781 10.378906 -17.050781 19.425781 C -17.050781 25.949219 -14.085938 29.65625 -6.671875 29.65625 C 3.855469 29.65625 7.859375 5.042969 12.308594 -16.609375 C 13.046875 -20.316406 17.050781 -20.019531 16.460938 -16.609375 C 14.53125 -4.746094 21.054688 0 29.507812 0 C 39 0 48.636719 -6.523438 55.605469 -16.609375 L 56.496094 -16.609375 C 70.878906 -16.609375 78.144531 -27.875 82.445312 -36.921875 C 84.074219 -40.332031 77.550781 -43.148438 75.773438 -40.628906 Z M 32.324219 -30.695312 C 26.691406 -30.695312 24.613281 -34.402344 24.613281 -38.703125 C 24.613281 -45.226562 29.507812 -52.492188 36.773438 -52.492188 C 42.558594 -52.492188 44.929688 -48.933594 44.929688 -44.632812 C 44.929688 -38.40625 39.738281 -30.695312 32.324219 -30.695312 Z M 32.324219 -30.695312 "/></g></g></g><g fill="#6b4e3c" fill-opacity="1"><g transform="translate(359.514244, 316.689494)"><g><path d="M 156.734375 -40.628906 C 153.472656 -35.734375 149.023438 -33.066406 144.574219 -33.066406 C 137.902344 -33.066406 135.53125 -37.367188 135.53125 -43.445312 C 135.53125 -52.492188 140.421875 -77.996094 147.835938 -77.996094 C 149.765625 -77.996094 151.097656 -76.363281 153.324219 -76.363281 C 158.511719 -76.363281 164.296875 -86.152344 164.296875 -95.046875 C 164.296875 -103.054688 159.996094 -110.320312 148.578125 -110.320312 C 132.117188 -110.320312 113.433594 -90.453125 103.648438 -69.839844 C 101.128906 -94.457031 86.894531 -110.320312 61.09375 -110.320312 C 31.289062 -110.320312 12.160156 -90.304688 12.160156 -67.914062 C 12.160156 -53.972656 20.757812 -44.78125 32.472656 -44.78125 C 45.671875 -44.78125 52.789062 -56.496094 50.121094 -62.574219 C 45.820312 -62.574219 42.558594 -66.578125 42.558594 -71.769531 C 42.558594 -81.109375 49.082031 -86.597656 56.199219 -86.597656 C 62.574219 -86.597656 66.429688 -82.296875 66.429688 -74.4375 C 66.429688 -58.421875 51.15625 -30.101562 30.398438 -30.101562 C 21.796875 -30.101562 15.421875 -34.550781 15.421875 -41.074219 C 15.421875 -42.113281 14.382812 -42.851562 13.195312 -42.851562 C 1.335938 -42.851562 -6.523438 -30.84375 -6.523438 -18.683594 C -6.523438 -6.375 1.925781 6.226562 19.128906 6.226562 C 44.335938 6.226562 66.578125 -12.457031 76.363281 -60.648438 C 76.957031 -63.464844 78.441406 -64.800781 80.515625 -64.800781 C 82.445312 -64.800781 84.074219 -63.464844 84.074219 -57.679688 C 84.074219 -44.039062 75.476562 -27.433594 75.476562 -16.460938 C 75.476562 -10.378906 77.847656 -7.117188 87.191406 -7.117188 C 92.082031 -7.117188 97.421875 -9.046875 100.089844 -19.277344 C 109.726562 -56.792969 114.324219 -64.355469 119.515625 -64.355469 C 121.292969 -64.355469 122.332031 -63.316406 122.332031 -61.09375 C 122.332031 -55.160156 111.953125 -38.554688 111.953125 -21.648438 C 111.953125 -8.15625 117.585938 0 128.558594 0 C 148.578125 0 158.660156 -28.765625 163.40625 -36.921875 C 162.070312 -39.738281 158.808594 -43.742188 156.734375 -40.628906 Z M 156.734375 -40.628906 "/></g></g></g><g fill="#6b4e3c" fill-opacity="1"><g transform="translate(512.835526, 316.689494)"><g><path d="M 27.875 0 C 45.078125 0 60.796875 -12.753906 73.84375 -36.921875 C 75.476562 -39.738281 69.542969 -44.1875 67.171875 -40.628906 C 60.5 -30.398438 48.488281 -25.207031 38.40625 -25.207031 C 29.953125 -25.207031 22.984375 -27.875 22.984375 -33.066406 C 22.984375 -34.996094 24.464844 -35.4375 25.503906 -34.847656 C 28.914062 -32.917969 32.917969 -32.472656 37.070312 -32.472656 C 51.601562 -32.472656 60.945312 -44.632812 60.945312 -55.457031 C 60.945312 -65.242188 54.863281 -74.140625 41.074219 -74.140625 C -1.484375 -74.140625 -13.789062 0 27.875 0 Z M 33.214844 -43.59375 C 28.46875 -43.59375 26.246094 -46.414062 26.246094 -49.675781 C 26.246094 -53.679688 29.804688 -57.976562 35.585938 -57.976562 C 40.183594 -57.976562 42.410156 -55.160156 42.410156 -51.898438 C 42.410156 -48.191406 39 -43.59375 33.214844 -43.59375 Z M 33.214844 -43.59375 "/></g></g></g><g fill="#6b4e3c" fill-opacity="1"><g transform="translate(576.595848, 316.689494)"><g/></g></g><g fill="#6b4e3c" fill-opacity="1"><g transform="translate(629.976539, 316.689494)"><g><path d="M 156.734375 -40.628906 C 153.472656 -35.734375 149.023438 -33.066406 144.574219 -33.066406 C 137.902344 -33.066406 135.53125 -37.367188 135.53125 -43.445312 C 135.53125 -52.492188 140.421875 -77.996094 147.835938 -77.996094 C 149.765625 -77.996094 151.097656 -76.363281 153.324219 -76.363281 C 158.511719 -76.363281 164.296875 -86.152344 164.296875 -95.046875 C 164.296875 -103.054688 159.996094 -110.320312 148.578125 -110.320312 C 132.117188 -110.320312 113.433594 -90.453125 103.648438 -69.839844 C 101.128906 -94.457031 86.894531 -110.320312 61.09375 -110.320312 C 31.289062 -110.320312 12.160156 -90.304688 12.160156 -67.914062 C 12.160156 -53.972656 20.757812 -44.78125 32.472656 -44.78125 C 45.671875 -44.78125 52.789062 -56.496094 50.121094 -62.574219 C 45.820312 -62.574219 42.558594 -66.578125 42.558594 -71.769531 C 42.558594 -81.109375 49.082031 -86.597656 56.199219 -86.597656 C 62.574219 -86.597656 66.429688 -82.296875 66.429688 -74.4375 C 66.429688 -58.421875 51.15625 -30.101562 30.398438 -30.101562 C 21.796875 -30.101562 15.421875 -34.550781 15.421875 -41.074219 C 15.421875 -42.113281 14.382812 -42.851562 13.195312 -42.851562 C 1.335938 -42.851562 -6.523438 -30.84375 -6.523438 -18.683594 C -6.523438 -6.375 1.925781 6.226562 19.128906 6.226562 C 44.335938 6.226562 66.578125 -12.457031 76.363281 -60.648438 C 76.957031 -63.464844 78.441406 -64.800781 80.515625 -64.800781 C 82.445312 -64.800781 84.074219 -63.464844 84.074219 -57.679688 C 84.074219 -44.039062 75.476562 -27.433594 75.476562 -16.460938 C 75.476562 -10.378906 77.847656 -7.117188 87.191406 -7.117188 C 92.082031 -7.117188 97.421875 -9.046875 100.089844 -19.277344 C 109.726562 -56.792969 114.324219 -64.355469 119.515625 -64.355469 C 121.292969 -64.355469 122.332031 -63.316406 122.332031 -61.09375 C 122.332031 -55.160156 111.953125 -38.554688 111.953125 -21.648438 C 111.953125 -8.15625 117.585938 0 128.558594 0 C 148.578125 0 158.660156 -28.765625 163.40625 -36.921875 C 162.070312 -39.738281 158.808594 -43.742188 156.734375 -40.628906 Z M 156.734375 -40.628906 "/></g></g></g><g fill="#6b4e3c" fill-opacity="1"><g transform="translate(783.297853, 316.689494)"><g><path d="M 73.992188 -40.628906 C 70.433594 -35.4375 66.429688 -33.363281 62.128906 -33.363281 L 61.09375 -33.363281 C 62.574219 -38.257812 63.316406 -43.445312 63.316406 -48.636719 C 63.316406 -67.320312 53.828125 -74.140625 41.667969 -74.140625 C 18.089844 -74.140625 0.890625 -47.152344 0.890625 -24.910156 C 0.890625 -9.488281 10.527344 0 23.875 0 C 34.996094 0 45.523438 -6.523438 52.9375 -16.609375 L 54.714844 -16.609375 C 69.097656 -16.609375 76.363281 -27.875 80.664062 -36.921875 C 82.296875 -40.332031 75.773438 -43.148438 73.992188 -40.628906 Z M 32.324219 -30.695312 C 26.691406 -30.695312 24.613281 -34.402344 24.613281 -38.703125 C 24.613281 -45.226562 29.507812 -52.492188 36.773438 -52.492188 C 42.558594 -52.492188 44.929688 -48.933594 44.929688 -44.632812 C 44.929688 -38.40625 39.738281 -30.695312 32.324219 -30.695312 Z M 32.324219 -30.695312 "/></g></g></g><g fill="#6b4e3c" fill-opacity="1"><g transform="translate(853.879033, 316.689494)"><g><path d="M 9.339844 0 C 19.871094 0 21.796875 -8.15625 21.796875 -15.71875 L 21.796875 -22.390625 C 21.796875 -35.585938 29.210938 -47.894531 37.8125 -47.894531 C 41.222656 -47.894531 43.445312 -46.117188 43.445312 -42.113281 C 43.445312 -34.550781 36.03125 -24.464844 36.03125 -13.195312 C 36.03125 -3.410156 41.074219 -0.296875 47.894531 -0.296875 C 59.015625 -0.296875 61.09375 -8.453125 61.09375 -14.679688 C 61.09375 -18.980469 60.054688 -20.460938 60.054688 -24.761719 C 60.054688 -35.882812 67.46875 -48.191406 76.070312 -48.191406 C 79.480469 -48.191406 81.703125 -46.414062 81.703125 -43 C 81.703125 -36.921875 75.476562 -26.988281 75.476562 -15.71875 C 75.476562 -7.265625 78.738281 0 88.226562 0 C 108.246094 0 118.328125 -28.765625 123.074219 -36.921875 C 124.703125 -39.738281 118.773438 -44.1875 116.402344 -40.628906 C 113.433594 -36.179688 110.617188 -33.066406 106.167969 -33.066406 C 101.128906 -33.066406 98.902344 -35.585938 98.902344 -40.777344 C 98.902344 -48.191406 103.648438 -52.9375 103.648438 -60.796875 C 103.648438 -68.210938 99.347656 -74.4375 87.78125 -74.4375 C 80.664062 -74.4375 74.289062 -71.027344 68.65625 -64.800781 C 66.429688 -62.277344 65.390625 -62.871094 64.949219 -64.800781 C 63.464844 -70.136719 59.3125 -74.140625 52.046875 -74.140625 C 45.523438 -74.140625 39.589844 -71.027344 34.105469 -65.6875 C 29.359375 -60.945312 26.097656 -63.464844 26.097656 -68.507812 C 26.097656 -71.472656 24.910156 -74.140625 21.5 -74.140625 C 15.570312 -74.140625 9.488281 -58.867188 3.410156 -40.628906 C -0.742188 -28.46875 -1.484375 -17.792969 -1.484375 -10.824219 C -1.484375 -4.597656 2.371094 0 9.339844 0 Z M 9.339844 0 "/></g></g></g></svg>